<mxfile host="Electron" modified="2024-08-10T14:17:24.729Z" agent="Mozilla/5.0 (Windows NT 10.0; Win64; x64) AppleWebKit/537.36 (KHTML, like Gecko) draw.io/24.0.4 Chrome/120.0.6099.109 Electron/28.1.0 Safari/537.36" etag="XGtVkeICjHXQNbPBZqvw" version="24.0.4" type="device" pages="2">
  <diagram name="user - role" id="MwxrbCYzgCnw35HOU19G">
    <mxGraphModel dx="2085" dy="740" grid="1" gridSize="10" guides="1" tooltips="1" connect="1" arrows="1" fold="1" page="1" pageScale="1" pageWidth="850" pageHeight="1100" math="0" shadow="0">
      <root>
        <mxCell id="0" />
        <mxCell id="1" parent="0" />
        <mxCell id="vv4BtX7Ap0bP-tVxriuV-15" style="edgeStyle=orthogonalEdgeStyle;rounded=0;orthogonalLoop=1;jettySize=auto;html=1;" edge="1" parent="1" source="vv4BtX7Ap0bP-tVxriuV-1" target="vv4BtX7Ap0bP-tVxriuV-13">
          <mxGeometry relative="1" as="geometry">
            <Array as="points">
              <mxPoint x="140" y="500" />
            </Array>
          </mxGeometry>
        </mxCell>
        <mxCell id="vv4BtX7Ap0bP-tVxriuV-1" value="User" style="rounded=0;whiteSpace=wrap;html=1;" vertex="1" parent="1">
          <mxGeometry x="80" y="320" width="120" height="60" as="geometry" />
        </mxCell>
        <mxCell id="vv4BtX7Ap0bP-tVxriuV-2" value="username" style="ellipse;whiteSpace=wrap;html=1;" vertex="1" parent="1">
          <mxGeometry x="-30" y="220" width="120" height="60" as="geometry" />
        </mxCell>
        <mxCell id="vv4BtX7Ap0bP-tVxriuV-3" value="password" style="ellipse;whiteSpace=wrap;html=1;" vertex="1" parent="1">
          <mxGeometry x="200" y="220" width="120" height="60" as="geometry" />
        </mxCell>
        <mxCell id="vv4BtX7Ap0bP-tVxriuV-4" value="" style="endArrow=none;html=1;rounded=0;" edge="1" parent="1" source="vv4BtX7Ap0bP-tVxriuV-1" target="vv4BtX7Ap0bP-tVxriuV-3">
          <mxGeometry width="50" height="50" relative="1" as="geometry">
            <mxPoint x="320" y="330" as="sourcePoint" />
            <mxPoint x="370" y="280" as="targetPoint" />
          </mxGeometry>
        </mxCell>
        <mxCell id="vv4BtX7Ap0bP-tVxriuV-5" value="" style="endArrow=none;html=1;rounded=0;" edge="1" parent="1" source="vv4BtX7Ap0bP-tVxriuV-1" target="vv4BtX7Ap0bP-tVxriuV-2">
          <mxGeometry width="50" height="50" relative="1" as="geometry">
            <mxPoint x="320" y="330" as="sourcePoint" />
            <mxPoint x="370" y="280" as="targetPoint" />
          </mxGeometry>
        </mxCell>
        <mxCell id="vv4BtX7Ap0bP-tVxriuV-16" style="edgeStyle=orthogonalEdgeStyle;rounded=0;orthogonalLoop=1;jettySize=auto;html=1;" edge="1" parent="1" source="vv4BtX7Ap0bP-tVxriuV-6" target="vv4BtX7Ap0bP-tVxriuV-13">
          <mxGeometry relative="1" as="geometry">
            <Array as="points">
              <mxPoint x="850" y="500" />
            </Array>
          </mxGeometry>
        </mxCell>
        <mxCell id="vv4BtX7Ap0bP-tVxriuV-6" value="Role" style="rounded=0;whiteSpace=wrap;html=1;" vertex="1" parent="1">
          <mxGeometry x="790" y="330" width="120" height="60" as="geometry" />
        </mxCell>
        <mxCell id="vv4BtX7Ap0bP-tVxriuV-7" value="id" style="ellipse;whiteSpace=wrap;html=1;" vertex="1" parent="1">
          <mxGeometry x="620" y="230" width="120" height="60" as="geometry" />
        </mxCell>
        <mxCell id="vv4BtX7Ap0bP-tVxriuV-8" value="name" style="ellipse;whiteSpace=wrap;html=1;" vertex="1" parent="1">
          <mxGeometry x="790" y="230" width="120" height="60" as="geometry" />
        </mxCell>
        <mxCell id="vv4BtX7Ap0bP-tVxriuV-9" value="admin" style="ellipse;whiteSpace=wrap;html=1;" vertex="1" parent="1">
          <mxGeometry x="960" y="240" width="120" height="60" as="geometry" />
        </mxCell>
        <mxCell id="vv4BtX7Ap0bP-tVxriuV-10" value="" style="endArrow=none;html=1;rounded=0;" edge="1" parent="1" source="vv4BtX7Ap0bP-tVxriuV-6" target="vv4BtX7Ap0bP-tVxriuV-7">
          <mxGeometry width="50" height="50" relative="1" as="geometry">
            <mxPoint x="740" y="180" as="sourcePoint" />
            <mxPoint x="790" y="130" as="targetPoint" />
          </mxGeometry>
        </mxCell>
        <mxCell id="vv4BtX7Ap0bP-tVxriuV-11" value="" style="endArrow=none;html=1;rounded=0;" edge="1" parent="1" source="vv4BtX7Ap0bP-tVxriuV-6" target="vv4BtX7Ap0bP-tVxriuV-8">
          <mxGeometry width="50" height="50" relative="1" as="geometry">
            <mxPoint x="740" y="180" as="sourcePoint" />
            <mxPoint x="790" y="130" as="targetPoint" />
          </mxGeometry>
        </mxCell>
        <mxCell id="vv4BtX7Ap0bP-tVxriuV-12" value="" style="endArrow=none;html=1;rounded=0;" edge="1" parent="1" source="vv4BtX7Ap0bP-tVxriuV-6" target="vv4BtX7Ap0bP-tVxriuV-9">
          <mxGeometry width="50" height="50" relative="1" as="geometry">
            <mxPoint x="740" y="180" as="sourcePoint" />
            <mxPoint x="790" y="130" as="targetPoint" />
          </mxGeometry>
        </mxCell>
        <mxCell id="vv4BtX7Ap0bP-tVxriuV-13" value="User Role" style="rhombus;whiteSpace=wrap;html=1;" vertex="1" parent="1">
          <mxGeometry x="430" y="480" width="140" height="40" as="geometry" />
        </mxCell>
        <mxCell id="vv4BtX7Ap0bP-tVxriuV-17" value="username" style="ellipse;whiteSpace=wrap;html=1;" vertex="1" parent="1">
          <mxGeometry x="330" y="570" width="120" height="60" as="geometry" />
        </mxCell>
        <mxCell id="vv4BtX7Ap0bP-tVxriuV-18" value="roleId" style="ellipse;whiteSpace=wrap;html=1;" vertex="1" parent="1">
          <mxGeometry x="540" y="570" width="120" height="60" as="geometry" />
        </mxCell>
        <mxCell id="vv4BtX7Ap0bP-tVxriuV-19" value="" style="endArrow=none;html=1;rounded=0;" edge="1" parent="1" source="vv4BtX7Ap0bP-tVxriuV-13" target="vv4BtX7Ap0bP-tVxriuV-17">
          <mxGeometry width="50" height="50" relative="1" as="geometry">
            <mxPoint x="490" y="460" as="sourcePoint" />
            <mxPoint x="540" y="410" as="targetPoint" />
          </mxGeometry>
        </mxCell>
        <mxCell id="vv4BtX7Ap0bP-tVxriuV-20" value="" style="endArrow=none;html=1;rounded=0;" edge="1" parent="1" source="vv4BtX7Ap0bP-tVxriuV-13" target="vv4BtX7Ap0bP-tVxriuV-18">
          <mxGeometry width="50" height="50" relative="1" as="geometry">
            <mxPoint x="490" y="460" as="sourcePoint" />
            <mxPoint x="540" y="410" as="targetPoint" />
          </mxGeometry>
        </mxCell>
      </root>
    </mxGraphModel>
  </diagram>
  <diagram name="user - file" id="AUn_AJgfgG-Qy1-DEdvg">
    <mxGraphModel dx="2085" dy="740" grid="1" gridSize="10" guides="1" tooltips="1" connect="1" arrows="1" fold="1" page="1" pageScale="1" pageWidth="850" pageHeight="1100" math="0" shadow="0">
      <root>
        <mxCell id="aT3T4KK6boP_UO2FWwcJ-0" />
        <mxCell id="aT3T4KK6boP_UO2FWwcJ-1" parent="aT3T4KK6boP_UO2FWwcJ-0" />
        <mxCell id="aT3T4KK6boP_UO2FWwcJ-2" style="edgeStyle=orthogonalEdgeStyle;rounded=0;orthogonalLoop=1;jettySize=auto;html=1;" edge="1" parent="aT3T4KK6boP_UO2FWwcJ-1" source="aT3T4KK6boP_UO2FWwcJ-3" target="aT3T4KK6boP_UO2FWwcJ-16">
          <mxGeometry relative="1" as="geometry">
            <Array as="points">
              <mxPoint x="140" y="500" />
            </Array>
          </mxGeometry>
        </mxCell>
        <mxCell id="qEbSnxsosQEYYPI0pJc7-0" value="(0, n)" style="edgeLabel;html=1;align=center;verticalAlign=middle;resizable=0;points=[];" vertex="1" connectable="0" parent="aT3T4KK6boP_UO2FWwcJ-2">
          <mxGeometry x="0.6712" y="-3" relative="1" as="geometry">
            <mxPoint x="37" y="-23" as="offset" />
          </mxGeometry>
        </mxCell>
        <mxCell id="aT3T4KK6boP_UO2FWwcJ-3" value="User" style="rounded=0;whiteSpace=wrap;html=1;" vertex="1" parent="aT3T4KK6boP_UO2FWwcJ-1">
          <mxGeometry x="80" y="320" width="120" height="60" as="geometry" />
        </mxCell>
        <mxCell id="aT3T4KK6boP_UO2FWwcJ-4" value="username" style="ellipse;whiteSpace=wrap;html=1;fontStyle=1" vertex="1" parent="aT3T4KK6boP_UO2FWwcJ-1">
          <mxGeometry x="-30" y="220" width="120" height="60" as="geometry" />
        </mxCell>
        <mxCell id="aT3T4KK6boP_UO2FWwcJ-5" value="password" style="ellipse;whiteSpace=wrap;html=1;" vertex="1" parent="aT3T4KK6boP_UO2FWwcJ-1">
          <mxGeometry x="200" y="220" width="120" height="60" as="geometry" />
        </mxCell>
        <mxCell id="aT3T4KK6boP_UO2FWwcJ-6" value="" style="endArrow=none;html=1;rounded=0;" edge="1" parent="aT3T4KK6boP_UO2FWwcJ-1" source="aT3T4KK6boP_UO2FWwcJ-3" target="aT3T4KK6boP_UO2FWwcJ-5">
          <mxGeometry width="50" height="50" relative="1" as="geometry">
            <mxPoint x="320" y="330" as="sourcePoint" />
            <mxPoint x="370" y="280" as="targetPoint" />
          </mxGeometry>
        </mxCell>
        <mxCell id="aT3T4KK6boP_UO2FWwcJ-7" value="" style="endArrow=none;html=1;rounded=0;" edge="1" parent="aT3T4KK6boP_UO2FWwcJ-1" source="aT3T4KK6boP_UO2FWwcJ-3" target="aT3T4KK6boP_UO2FWwcJ-4">
          <mxGeometry width="50" height="50" relative="1" as="geometry">
            <mxPoint x="320" y="330" as="sourcePoint" />
            <mxPoint x="370" y="280" as="targetPoint" />
          </mxGeometry>
        </mxCell>
        <mxCell id="aT3T4KK6boP_UO2FWwcJ-8" style="edgeStyle=orthogonalEdgeStyle;rounded=0;orthogonalLoop=1;jettySize=auto;html=1;" edge="1" parent="aT3T4KK6boP_UO2FWwcJ-1" source="aT3T4KK6boP_UO2FWwcJ-9" target="aT3T4KK6boP_UO2FWwcJ-16">
          <mxGeometry relative="1" as="geometry">
            <Array as="points">
              <mxPoint x="850" y="500" />
            </Array>
          </mxGeometry>
        </mxCell>
        <mxCell id="qEbSnxsosQEYYPI0pJc7-1" value="(1, 1)" style="edgeLabel;html=1;align=center;verticalAlign=middle;resizable=0;points=[];" vertex="1" connectable="0" parent="aT3T4KK6boP_UO2FWwcJ-8">
          <mxGeometry x="0.7046" y="-5" relative="1" as="geometry">
            <mxPoint x="-28" y="-15" as="offset" />
          </mxGeometry>
        </mxCell>
        <mxCell id="aT3T4KK6boP_UO2FWwcJ-9" value="File" style="rounded=0;whiteSpace=wrap;html=1;" vertex="1" parent="aT3T4KK6boP_UO2FWwcJ-1">
          <mxGeometry x="790" y="330" width="120" height="60" as="geometry" />
        </mxCell>
        <mxCell id="aT3T4KK6boP_UO2FWwcJ-10" value="id" style="ellipse;whiteSpace=wrap;html=1;fontStyle=1" vertex="1" parent="aT3T4KK6boP_UO2FWwcJ-1">
          <mxGeometry x="620" y="230" width="120" height="60" as="geometry" />
        </mxCell>
        <mxCell id="aT3T4KK6boP_UO2FWwcJ-11" value="name" style="ellipse;whiteSpace=wrap;html=1;" vertex="1" parent="aT3T4KK6boP_UO2FWwcJ-1">
          <mxGeometry x="790" y="230" width="120" height="60" as="geometry" />
        </mxCell>
        <mxCell id="aT3T4KK6boP_UO2FWwcJ-12" value="path" style="ellipse;whiteSpace=wrap;html=1;" vertex="1" parent="aT3T4KK6boP_UO2FWwcJ-1">
          <mxGeometry x="960" y="240" width="120" height="60" as="geometry" />
        </mxCell>
        <mxCell id="aT3T4KK6boP_UO2FWwcJ-13" value="" style="endArrow=none;html=1;rounded=0;" edge="1" parent="aT3T4KK6boP_UO2FWwcJ-1" source="aT3T4KK6boP_UO2FWwcJ-9" target="aT3T4KK6boP_UO2FWwcJ-10">
          <mxGeometry width="50" height="50" relative="1" as="geometry">
            <mxPoint x="740" y="180" as="sourcePoint" />
            <mxPoint x="790" y="130" as="targetPoint" />
          </mxGeometry>
        </mxCell>
        <mxCell id="aT3T4KK6boP_UO2FWwcJ-14" value="" style="endArrow=none;html=1;rounded=0;" edge="1" parent="aT3T4KK6boP_UO2FWwcJ-1" source="aT3T4KK6boP_UO2FWwcJ-9" target="aT3T4KK6boP_UO2FWwcJ-11">
          <mxGeometry width="50" height="50" relative="1" as="geometry">
            <mxPoint x="740" y="180" as="sourcePoint" />
            <mxPoint x="790" y="130" as="targetPoint" />
          </mxGeometry>
        </mxCell>
        <mxCell id="aT3T4KK6boP_UO2FWwcJ-15" value="" style="endArrow=none;html=1;rounded=0;" edge="1" parent="aT3T4KK6boP_UO2FWwcJ-1" source="aT3T4KK6boP_UO2FWwcJ-9" target="aT3T4KK6boP_UO2FWwcJ-12">
          <mxGeometry width="50" height="50" relative="1" as="geometry">
            <mxPoint x="740" y="180" as="sourcePoint" />
            <mxPoint x="790" y="130" as="targetPoint" />
          </mxGeometry>
        </mxCell>
        <mxCell id="aT3T4KK6boP_UO2FWwcJ-16" value="User File" style="rhombus;whiteSpace=wrap;html=1;" vertex="1" parent="aT3T4KK6boP_UO2FWwcJ-1">
          <mxGeometry x="430" y="480" width="140" height="40" as="geometry" />
        </mxCell>
        <mxCell id="qEbSnxsosQEYYPI0pJc7-2" value="userUploaded" style="ellipse;whiteSpace=wrap;html=1;fontStyle=2" vertex="1" parent="aT3T4KK6boP_UO2FWwcJ-1">
          <mxGeometry x="1010" y="330" width="120" height="60" as="geometry" />
        </mxCell>
        <mxCell id="qEbSnxsosQEYYPI0pJc7-3" value="" style="endArrow=none;html=1;rounded=0;" edge="1" parent="aT3T4KK6boP_UO2FWwcJ-1" source="aT3T4KK6boP_UO2FWwcJ-9" target="qEbSnxsosQEYYPI0pJc7-2">
          <mxGeometry width="50" height="50" relative="1" as="geometry">
            <mxPoint x="740" y="180" as="sourcePoint" />
            <mxPoint x="790" y="130" as="targetPoint" />
          </mxGeometry>
        </mxCell>
        <mxCell id="qEbSnxsosQEYYPI0pJc7-4" value="" style="endArrow=classic;html=1;rounded=0;" edge="1" parent="aT3T4KK6boP_UO2FWwcJ-1" source="qEbSnxsosQEYYPI0pJc7-2" target="aT3T4KK6boP_UO2FWwcJ-4">
          <mxGeometry width="50" height="50" relative="1" as="geometry">
            <mxPoint x="780" y="290" as="sourcePoint" />
            <mxPoint x="830" y="240" as="targetPoint" />
            <Array as="points">
              <mxPoint x="1220" y="210" />
              <mxPoint x="260" y="90" />
            </Array>
          </mxGeometry>
        </mxCell>
      </root>
    </mxGraphModel>
  </diagram>
</mxfile>
